<svg height="512pt" viewBox="-23 0 512 512.001" width="512pt" xmlns="http://www.w3.org/2000/svg"><path d="m413.023438 327.425781h-360.761719c-28.816407 0-52.261719 23.445313-52.261719 52.261719v80.050781c0 28.816407 23.445312 52.261719 52.261719 52.261719h360.761719c28.816406 0 52.261718-23.445312 52.261718-52.261719v-80.050781c0-28.816406-23.445312-52.261719-52.261718-52.261719zm22.238281 132.3125c0 12.261719-9.976563 22.234375-22.238281 22.234375h-360.761719c-12.257813 0-22.234375-9.972656-22.234375-22.234375v-80.050781c0-12.261719 9.976562-22.238281 22.234375-22.238281h360.761719c12.261718 0 22.238281 9.976562 22.238281 22.238281zm0 0"/><path d="m389.375 400.140625-3.917969 1.273437v-4.117187c0-8.292969-6.722656-15.015625-15.015625-15.015625-8.289062 0-15.011718 6.722656-15.011718 15.015625v4.117187l-3.917969-1.273437c-7.890625-2.558594-16.355469 1.753906-18.917969 9.640625s1.753906 16.355469 9.640625 18.917969l3.917969 1.273437-2.421875 3.332032c-4.875 6.707031-3.386719 16.097656 3.320312 20.972656 2.667969 1.9375 5.753907 2.867187 8.8125 2.867187 4.644531 0 9.222657-2.148437 12.160157-6.191406l2.417968-3.332031 2.421875 3.332031c2.9375 4.042969 7.515625 6.191406 12.160157 6.191406 3.058593 0 6.148437-.933593 8.8125-2.871093 6.707031-4.871094 8.195312-14.261719 3.320312-20.96875l-2.421875-3.332032 3.917969-1.273437c7.886718-2.5625 12.199218-11.03125 9.640625-18.917969-2.5625-7.886719-11.027344-12.199219-18.917969-9.640625zm0 0"/><path d="m297.507812 400.140625-3.917968 1.273437v-4.117187c0-8.292969-6.722656-15.015625-15.011719-15.015625-8.292969 0-15.015625 6.722656-15.015625 15.015625v4.117187l-3.917969-1.273437c-7.886719-2.558594-16.355469 1.753906-18.917969 9.640625-2.558593 7.886719 1.753907 16.355469 9.640626 18.917969l3.917968 1.273437-2.421875 3.332032c-4.875 6.707031-3.386719 16.097656 3.324219 20.972656 2.664062 1.9375 5.75 2.867187 8.808594 2.867187 4.644531 0 9.222656-2.148437 12.160156-6.191406l2.421875-3.332031 2.417969 3.332031c2.9375 4.042969 7.515625 6.191406 12.160156 6.191406 3.058594 0 6.148438-.933593 8.8125-2.867187 6.707031-4.875 8.195312-14.265625 3.320312-20.972656l-2.421874-3.332032 3.917968-1.273437c7.886719-2.5625 12.203125-11.03125 9.640625-18.917969s-11.027343-12.199219-18.917969-9.640625zm0 0"/><path d="m205.640625 400.140625-3.917969 1.273437v-4.117187c0-8.292969-6.722656-15.015625-15.011718-15.015625-8.292969 0-15.015626 6.722656-15.015626 15.015625v4.117187l-3.914062-1.273437c-7.890625-2.558594-16.359375 1.753906-18.917969 9.640625-2.5625 7.886719 1.75 16.355469 9.636719 18.917969l3.917969 1.273437-2.421875 3.332032c-4.871094 6.707031-3.382813 16.097656 3.324218 20.972656 2.664063 1.9375 5.75 2.867187 8.8125 2.867187 4.640626 0 9.21875-2.148437 12.15625-6.191406l2.421876-3.332031 2.421874 3.332031c2.9375 4.042969 7.515626 6.191406 12.15625 6.191406 3.058594 0 6.148438-.933593 8.8125-2.867187 6.707032-4.875 8.195313-14.265625 3.320313-20.972656l-2.417969-3.332032 3.914063-1.273437c7.886719-2.5625 12.203125-11.03125 9.640625-18.917969s-11.027344-12.199219-18.917969-9.640625zm0 0"/><path d="m113.773438 400.140625-3.914063 1.273437v-4.117187c0-8.292969-6.722656-15.015625-15.015625-15.015625-8.289062 0-15.011719 6.722656-15.011719 15.015625v4.117187l-3.917969-1.273437c-7.890624-2.558594-16.355468 1.753906-18.917968 9.640625s1.753906 16.355469 9.640625 18.917969l3.914062 1.273437-2.417969 3.332032c-4.875 6.707031-3.386718 16.097656 3.320313 20.96875 2.664063 1.9375 5.75 2.871093 8.8125 2.871093 4.640625 0 9.21875-2.148437 12.15625-6.191406l2.421875-3.332031 2.421875 3.332031c2.9375 4.042969 7.515625 6.191406 12.15625 6.191406 3.0625 0 6.148437-.933593 8.8125-2.867187 6.707031-4.875 8.195313-14.265625 3.324219-20.972656l-2.421875-3.332032 3.917969-1.273437c7.886718-2.5625 12.199218-11.03125 9.636718-18.917969-2.558594-7.886719-11.027344-12.199219-18.917968-9.640625zm0 0"/><path d="m158.832031 298.039062h147.621094c19.097656 0 34.632813-15.539062 34.632813-34.632812v-125.304688c0-19.09375-15.535157-34.628906-34.632813-34.628906h-2.707031v-32.367187c.003906-39.207031-31.894532-71.105469-71.101563-71.105469s-71.105469 31.898438-71.105469 71.105469v32.367187h-2.707031c-19.09375 0-34.628906 15.535156-34.628906 34.632813v125.300781c0 19.097656 15.535156 34.632812 34.628906 34.632812zm32.734375-226.933593c0-22.648438 18.425782-41.078125 41.078125-41.078125 22.648438 0 41.078125 18.425781 41.078125 41.078125v32.367187h-82.15625zm-37.339844 66.996093c0-2.539062 2.066407-4.601562 4.605469-4.601562h147.621094c2.539063 0 4.605469 2.0625 4.605469 4.601562v125.304688c0 2.539062-2.066406 4.605469-4.605469 4.605469h-147.621094c-2.539062 0-4.605469-2.066407-4.605469-4.605469zm0 0"/><path d="m217.628906 206.628906v13.476563c0 8.292969 6.722656 15.015625 15.015625 15.015625 8.289063 0 15.011719-6.722656 15.011719-15.015625v-13.476563c5.097656-4.285156 8.339844-10.703125 8.339844-17.886718 0-12.898438-10.453125-23.351563-23.351563-23.351563-12.898437 0-23.355469 10.457031-23.355469 23.351563 0 7.183593 3.242188 13.601562 8.339844 17.886718zm0 0"/></svg>