<svg id="Capa_1" enable-background="new 0 0 511.86 511.86" height="512" viewBox="0 0 511.86 511.86" width="512" xmlns="http://www.w3.org/2000/svg"><path d="m414.93 0h-318c-41.355 0-75 33.645-75 75v260.792c0 41.355 33.645 75 75 75h148.815l97.733 94.072c4.758 4.58 10.99 6.996 17.328 6.996 3.301 0 6.631-.656 9.796-2.002 9.242-3.932 15.213-12.962 15.213-23.005v-76.062h29.115c41.355 0 75-33.645 75-75v-260.791c0-41.355-33.645-75-75-75zm45 335.792c0 24.813-20.187 45-45 45h-44.115c-8.284 0-15 6.716-15 15v79.308l-93.622-90.114c-2.795-2.69-6.523-4.193-10.402-4.193h-154.861c-24.813 0-45-20.187-45-45v-260.793c0-24.813 20.187-45 45-45h318c24.813 0 45 20.187 45 45z"/><path d="m255.93 80.437c-68.925 0-125 56.075-125 125s56.075 125 125 125 125-56.075 125-125-56.075-125-125-125zm-95 125c0-20.79 6.718-40.038 18.09-55.697l132.607 132.607c-15.66 11.372-34.907 18.09-55.697 18.09-52.383 0-95-42.618-95-95zm171.91 55.697-132.607-132.608c15.66-11.372 34.907-18.09 55.697-18.09 52.383 0 95 42.617 95 95 0 20.791-6.718 40.038-18.09 55.698z"/></svg>