<?xml version="1.0" encoding="iso-8859-1"?>
<!-- Generator: Adobe Illustrator 21.0.0, SVG Export Plug-In . SVG Version: 6.00 Build 0)  -->
<svg xmlns="http://www.w3.org/2000/svg" xmlns:xlink="http://www.w3.org/1999/xlink" version="1.1" id="Capa_1" x="0px" y="0px" viewBox="0 0 512 512" style="enable-background:new 0 0 512 512;" xml:space="preserve" width="512" height="512">
<g>
	<g>
		<path d="M273.599,321.323l13.982-29.952c-19.39-4.145-38.036-12.581-54.402-25.313l-13.965,29.912    C220.919,296.758,272.311,320.722,273.599,321.323z"/>
		<path d="M206.527,323.145l-42.827,91.733c-7.013,15.021-0.516,32.882,14.508,39.887c15.014,7.001,32.861,0.509,39.868-14.502    l42.833-91.757C259.622,347.906,208.247,323.955,206.527,323.145z"/>
	</g>
	<path d="M203.742,84.44H15c-8.284,0-15,6.716-15,15v120c0,8.284,6.716,15,15,15h188.742   C173.513,189.227,173.513,129.654,203.742,84.44z M76,174.44c-8.284,0-15-6.716-15-15s6.716-15,15-15c8.284,0,15,6.716,15,15   S84.284,174.44,76,174.44z M136,174.44c-8.284,0-15-6.716-15-15s6.716-15,15-15c8.284,0,15,6.716,15,15S144.284,174.44,136,174.44z   "/>
	<g>
		<path d="M497,84.44h-68.742c30.229,45.214,30.229,104.786,0,150H497c8.284,0,15-6.716,15-15v-120    C512,91.156,505.284,84.44,497,84.44z"/>
	</g>
	<g>
		<path d="M346,144.44h-15v30h15c8.271,0,15-6.729,15-15S354.271,144.44,346,144.44z"/>
		<path d="M390.247,85.194c-41.036-41.035-107.454-41.039-148.493,0C175.628,151.321,223.09,264.44,316,264.44    C408.84,264.44,456.431,151.38,390.247,85.194z M271,189.44c0,8.284-6.716,15-15,15s-15-6.716-15-15v-60c0-8.284,6.716-15,15-15    s15,6.716,15,15V189.44z M346,204.44h-30c-8.284,0-15-6.716-15-15v-60c0-8.284,6.716-15,15-15h30c24.813,0,45,20.187,45,45    S370.813,204.44,346,204.44z"/>
	</g>
</g>















</svg>
