<svg height="511pt" viewBox="1 -18 511.99889 511" width="511pt" xmlns="http://www.w3.org/2000/svg"><path d="m442.972656 70.082031c-44.539062-44.871093-103.769531-69.582031-166.773437-69.582031-63.003907 0-122.234375 24.710938-166.777344 69.582031-44.511719 44.839844-69.023437 104.453125-69.023437 167.855469 0 36.703125 8.523437 73.144531 24.667968 105.792969-7.734375 29.085937-28.371094 53.253906-56.035156 65.261719-7.597656 3.296874-11.085938 12.132812-7.789062 19.730468.628906 1.445313 1.460937 2.742188 2.441406 3.871094 19.945312 22.9375 48.746094 36.09375 79.011718 36.09375 26.507813 0 51.730469-10.015625 70.996094-27.835938 36.859375 22.621094 78.945313 34.523438 122.507813 34.523438 63.007812 0 122.234375-24.710938 166.777343-69.582031 44.507813-44.839844 69.023438-104.453125 69.023438-167.855469s-24.515625-123.015625-69.027344-167.855469zm-166.773437 375.292969c-41.746094 0-81.929688-12.523438-116.214844-36.210938l-.003906.003907c-6.296875-4.363281-14.996094-3.289063-20.019531 2.699219-14.289063 17.042968-35.164063 26.820312-57.265626 26.820312-15.078124 0-29.644531-4.597656-41.917968-12.949219 27.871094-18.503906 47.804687-47.464843 54.839844-80.808593.777343-3.695313.113281-7.351563-1.59375-10.40625-15.453126-29.550782-23.625-62.941407-23.625-96.585938 0-114.382812 92.320312-207.4375 205.800781-207.4375s205.800781 93.054688 205.800781 207.4375-92.324219 207.4375-205.800781 207.4375zm0 0"/><path d="m383.738281 222.9375h-24.890625c-8.285156 0-15 6.714844-15 15s6.714844 15 15 15h24.890625c8.285157 0 15-6.714844 15-15s-6.714843-15-15-15zm0 0"/><path d="m288.839844 222.9375h-24.890625c-8.285157 0-15 6.714844-15 15s6.714843 15 15 15h24.890625c8.285156 0 15-6.714844 15-15s-6.714844-15-15-15zm0 0"/><path d="m193.550781 222.9375h-24.894531c-8.28125 0-15 6.714844-15 15s6.71875 15 15 15h24.894531c8.285157 0 15-6.714844 15-15s-6.714843-15-15-15zm0 0"/></svg>