<svg height="511pt" viewBox="1 -18 511.99989 511" width="511pt" xmlns="http://www.w3.org/2000/svg"><path style="fill:rgb(255, 251, 0);" d="m442.972656 70.082031c-44.539062-44.871093-103.769531-69.582031-166.773437-69.582031-63.007813 0-122.234375 24.710938-166.777344 69.582031-44.511719 44.84375-69.023437 104.453125-69.023437 167.855469 0 36.703125 8.523437 73.144531 24.667968 105.792969-7.734375 29.085937-28.371094 53.25-56.035156 65.261719-7.597656 3.296874-11.085938 12.132812-7.789062 19.730468.628906 1.445313 1.460937 2.742188 2.441406 3.871094 19.945312 22.9375 48.746094 36.09375 79.011718 36.09375 26.507813 0 51.730469-10.015625 70.996094-27.835938 36.859375 22.621094 78.945313 34.523438 122.507813 34.523438 63.007812 0 122.234375-24.710938 166.777343-69.582031 44.511719-44.84375 69.023438-104.453125 69.023438-167.855469s-24.515625-123.011719-69.027344-167.855469zm-249.421875 182.855469h-24.894531c-8.28125 0-15-6.714844-15-15 0-8.28125 6.71875-15 15-15h24.894531c8.285157 0 15 6.71875 15 15 0 8.285156-6.714843 15-15 15zm95.289063 0h-24.890625c-8.285157 0-15-6.714844-15-15 0-8.28125 6.714843-15 15-15h24.894531c8.28125 0 15 6.71875 15 15 0 8.285156-6.71875 15-15.003906 15zm94.898437 0h-24.890625c-8.285156 0-15-6.714844-15-15 0-8.28125 6.714844-15 15-15h24.890625c8.285157 0 15 6.71875 15 15 0 8.285156-6.714843 15-15 15zm0 0"/></svg>