<svg height="511pt" viewBox="1 -18 511.99889 511" width="511pt" xmlns="http://www.w3.org/2000/svg"><path d="m442.972656 70.082031c-44.539062-44.871093-103.769531-69.582031-166.773437-69.582031-63.003907 0-122.234375 24.710938-166.777344 69.582031-44.511719 44.839844-69.023437 104.453125-69.023437 167.855469 0 36.714844 8.511718 73.175781 24.664062 105.828125-7.738281 29.070313-28.375 53.222656-56.03125 65.226563-7.597656 3.296874-11.085938 12.132812-7.789062 19.730468.660156 1.519532 1.539062 2.871094 2.585937 4.039063 19.941406 22.835937 48.675781 35.925781 78.867187 35.925781 26.507813 0 51.738282-10.007812 71-27.828125 36.859376 22.621094 78.945313 34.515625 122.503907 34.515625 63.003906 0 122.234375-24.710938 166.773437-69.582031 44.511719-44.839844 69.027344-104.453125 69.027344-167.855469s-24.515625-123.015625-69.027344-167.855469zm-166.773437 375.292969c-41.679688 0-81.804688-12.484375-116.054688-36.101562-6.3125-4.492188-15.121093-3.449219-20.183593 2.589843-14.289063 17.046875-35.164063 26.824219-57.265626 26.824219-15.078124 0-29.652343-4.585938-41.921874-12.9375 27.875-18.507812 47.808593-47.472656 54.84375-80.824219.8125-3.851562.066406-7.667969-1.804688-10.796875-15.320312-29.453125-23.414062-62.695312-23.414062-96.191406 0-114.382812 92.320312-207.4375 205.800781-207.4375s205.800781 93.054688 205.800781 207.4375-92.324219 207.4375-205.800781 207.4375zm0 0"/><path d="m353.539062 194.015625h-17.175781v-40.164063c0-33.175781-26.992187-60.167968-60.164062-60.167968-33.175781 0-60.167969 26.992187-60.167969 60.167968v40.164063h-17.171875c-11.441406 0-20.746094 9.308594-20.746094 20.746094v104.808593c0 27.914063 22.707031 50.621094 50.617188 50.621094h94.933593c27.914063 0 50.621094-22.707031 50.621094-50.621094v-104.808593c0-11.4375-9.308594-20.746094-20.746094-20.746094zm-107.507812-40.164063c0-16.632812 13.535156-30.167968 30.167969-30.167968 16.632812 0 30.164062 13.53125 30.164062 30.167968v40.164063h-60.332031zm98.253906 165.71875c0 11.371094-9.25 20.617188-20.621094 20.617188h-94.933593c-11.371094 0-20.617188-9.25-20.617188-20.617188v-95.554687h136.171875zm0 0"/><path d="m276.199219 252.011719c-8.285157 0-15 6.714843-15 15v30.179687c0 8.285156 6.714843 15 15 15 8.28125 0 15-6.714844 15-15v-30.179687c0-8.285157-6.714844-15-15-15zm0 0"/></svg>