<svg height="511pt" viewBox="1 -18 511.99889 511" width="511pt" xmlns="http://www.w3.org/2000/svg"><path style="fill: rgb(255, 251, 0);" d="m208.113281 319.570312c0 11.371094 9.246094 20.617188 20.617188 20.617188h94.933593c11.371094 0 20.621094-9.25 20.621094-20.617188v-95.554687h-136.171875zm53.085938-52.558593c0-8.285157 6.714843-15 15-15 8.28125 0 15 6.714843 15 15v30.179687c0 8.285156-6.71875 15-15 15-8.285157 0-15-6.714844-15-15zm0 0"/><path style="fill: rgb(255, 251, 0);" d="m442.972656 70.082031c-44.539062-44.871093-103.769531-69.582031-166.773437-69.582031-63.003907 0-122.234375 24.710938-166.777344 69.582031-44.511719 44.839844-69.023437 104.453125-69.023437 167.855469 0 36.714844 8.511718 73.175781 24.664062 105.828125-7.738281 29.070313-28.375 53.222656-56.03125 65.226563-7.597656 3.296874-11.085938 12.132812-7.789062 19.730468.660156 1.519532 1.539062 2.871094 2.585937 4.039063 19.941406 22.835937 48.675781 35.925781 78.867187 35.925781 26.507813 0 51.738282-10.007812 71-27.828125 36.859376 22.621094 78.945313 34.515625 122.503907 34.515625 63.003906 0 122.234375-24.710938 166.773437-69.582031 44.511719-44.839844 69.027344-104.453125 69.027344-167.855469s-24.515625-123.015625-69.027344-167.855469zm-68.6875 249.488281c0 27.914063-22.707031 50.617188-50.621094 50.617188h-94.933593c-27.910157 0-50.617188-22.707031-50.617188-50.617188v-104.808593c0-11.4375 9.304688-20.746094 20.746094-20.746094h17.171875v-40.164063c0-33.175781 26.992188-60.167968 60.167969-60.167968 33.171875 0 60.164062 26.992187 60.164062 60.167968v40.164063h17.175781c11.4375 0 20.746094 9.308594 20.746094 20.746094zm0 0"/><path style="fill: rgb(255, 251, 0);" d="m306.363281 153.851562c0-16.632812-13.53125-30.167968-30.164062-30.167968-16.632813 0-30.167969 13.53125-30.167969 30.167968v40.164063h60.332031zm0 0"/></svg>