<?xml version="1.0" encoding="iso-8859-1"?>
<!-- Generator: Adobe Illustrator 19.0.0, SVG Export Plug-In . SVG Version: 6.00 Build 0)  -->
<svg version="1.1" id="Capa_1" xmlns="http://www.w3.org/2000/svg" xmlns:xlink="http://www.w3.org/1999/xlink" x="0px" y="0px"
	 viewBox="0 0 511.998 511.998" style="enable-background:new 0 0 511.998 511.998;" xml:space="preserve">
<g>
	<g>
		<path d="M292.224,387.811c-4.134-0.431-7.828,2.569-8.258,6.697l-1.813,17.379h-52.307l-12.133-116.24
			c-0.4-3.829-3.628-6.737-7.477-6.737h-3.993c-8.224,0-15.117-6.427-15.691-14.633l-4.486-64.103
			c-0.29-4.142-3.877-7.265-8.024-6.974c-4.142,0.29-7.265,3.882-6.974,8.024l4.485,64.104c1.057,15.109,13.07,27.136,27.897,28.49
			l3.635,34.82c-41.422,4.247-79.025,13.947-106.629,27.578c-32.21,15.906-49.235,35.919-49.235,57.876
			c0,31.814,37.283,60.155,99.733,75.812c0.613,0.153,1.229,0.228,1.834,0.228c3.366,0,6.43-2.277,7.286-5.691
			c1.01-4.026-1.436-8.11-5.464-9.12c-54.498-13.663-88.354-37.126-88.354-61.229c0-32.389,60.648-62.128,142.388-70.5l6.95,66.595
			c0.4,3.829,3.628,6.737,7.478,6.737h65.855c3.85,0,7.078-2.908,7.478-6.738l2.517-24.117
			C299.352,391.938,296.354,388.242,292.224,387.811z"/>
	</g>
</g>
<g>
	<g>
		<path d="M411.847,366.365c-27.621-13.704-65.36-23.464-106.932-27.727l3.635-34.822c14.827-1.355,26.838-13.382,27.896-28.491
			l7.97-113.905c1.009-14.417-4.066-28.749-13.922-39.32c-9.087-9.746-21.649-15.647-34.88-16.511
			c12.634-11.053,20.637-27.273,20.637-45.339C316.251,27.029,289.222,0,255.999,0s-60.251,27.029-60.251,60.251
			c0,18.065,8.003,34.286,20.637,45.339c-13.231,0.864-25.792,6.765-34.879,16.51c-9.857,10.57-14.931,24.903-13.923,39.321
			l1.381,19.743c0.29,4.142,3.877,7.262,8.024,6.974c4.142-0.291,7.265-3.883,6.974-8.024l-1.381-19.743
			c-0.73-10.425,2.794-20.374,9.919-28.017c7.127-7.643,16.807-11.852,27.256-11.852h72.483c10.45,0,20.13,4.209,27.256,11.852
			c7.126,7.643,10.649,17.593,9.92,28.017l-7.97,113.904c-0.574,8.205-7.468,14.633-15.692,14.633h-3.992
			c-3.85,0-7.078,2.908-7.478,6.737l-7.191,68.901c-0.432,4.13,2.567,7.826,6.697,8.258c0.266,0.028,0.528,0.041,0.789,0.041
			c3.802,0,7.065-2.874,7.469-6.738l1.306-12.515c81.68,8.37,142.387,38.165,142.387,70.498c0,17.949-19.353,36.131-53.096,49.883
			c-36.378,14.825-84.906,22.99-136.647,22.99c-25.044,0-49.404-1.914-72.403-5.686c-4.093-0.676-7.964,2.104-8.635,6.201
			c-0.673,4.097,2.104,7.964,6.202,8.635c23.802,3.905,48.981,5.885,74.838,5.885c53.641,0,104.184-8.559,142.321-24.101
			c40.276-16.414,62.458-39.074,62.458-63.807C460.778,402.209,443.858,382.248,411.847,366.365z M255.999,105.467
			c-24.932,0-45.216-20.284-45.216-45.216c0-24.933,20.284-45.216,45.216-45.216c24.932,0,45.216,20.284,45.216,45.216
			S280.931,105.467,255.999,105.467z"/>
	</g>
</g>
<g>
</g>
<g>
</g>
<g>
</g>
<g>
</g>
<g>
</g>
<g>
</g>
<g>
</g>
<g>
</g>
<g>
</g>
<g>
</g>
<g>
</g>
<g>
</g>
<g>
</g>
<g>
</g>
<g>
</g>
</svg>
