<svg height="496pt" viewBox="-48 0 496 496" width="496pt" xmlns="http://www.w3.org/2000/svg"><path d="m392 208c4.414062 0 8-3.574219 8-8v-64c0-4.425781-3.585938-8-8-8h-24v-120c0-4.425781-3.585938-8-8-8h-352c-4.414062 0-8 3.574219-8 8v448c0 22.054688 17.945312 40 40 40h328v-16h-16v-48h8c4.414062 0 8-3.574219 8-8v-24h24c4.414062 0 8-3.574219 8-8v-64c0-4.425781-3.585938-8-8-8h-24v-16h24c4.414062 0 8-3.574219 8-8v-64c0-4.425781-3.585938-8-8-8h-24v-16zm-56 272h-296c-13.230469 0-24-10.769531-24-24s10.769531-24 24-24h296zm16-64h-312c-9 0-17.3125 2.984375-24 8.015625v-408.015625h336zm32-272v48h-16v-48zm0 192v48h-16v-48zm0-96v48h-16v-48zm0 0"/><path d="m184 336c83.816406 0 152-68.183594 152-152s-68.183594-152-152-152-152 68.183594-152 152 68.183594 152 152 152zm0-288c74.992188 0 136 61.007812 136 136s-61.007812 136-136 136-136-61.007812-136-136 61.007812-136 136-136zm0 0"/><path d="m168 296h16c4.414062 0 8-3.574219 8-8v-64c0-4.425781-3.585938-8-8-8h-24v-64h24c4.414062 0 8-3.574219 8-8v-64c0-4.425781-3.585938-8-8-8h-16c-39.695312 0-72 32.296875-72 72v80c0 39.703125 32.304688 72 72 72zm-56-152c0-30.871094 25.121094-56 56-56h8v48h-24c-4.414062 0-8 3.574219-8 8v80c0 4.425781 3.585938 8 8 8h24v48h-8c-30.878906 0-56-25.128906-56-56zm0 0"/><path d="m216 192h16c0-13.230469-10.769531-24-24-24v16c4.40625 0 8 3.585938 8 8zm0 0"/><path d="m248 192h16c0-30.871094-25.121094-56-56-56v16c22.054688 0 40 17.945312 40 40zm0 0"/><path d="m280 192h16c0-48.519531-39.480469-88-88-88v16c39.695312 0 72 32.296875 72 72zm0 0"/></svg>