<svg id="Capa_1" enable-background="new 0 0 512 512" height="512" viewBox="0 0 512 512" width="512" xmlns="http://www.w3.org/2000/svg"><path d="m497 0h-482c-8.284 0-15 6.716-15 15v482c0 8.284 6.716 15 15 15h482c8.284 0 15-6.716 15-15v-482c0-8.284-6.716-15-15-15zm-15 482h-452v-452h452z"/><path d="m182.523 446.278h146.953c49.009 0 88.88-39.872 88.88-88.88v-146.952c0-49.008-39.871-88.88-88.88-88.88h-42.798l23.841-31.857c4.963-6.632 3.61-16.033-3.022-20.997-6.634-4.964-16.034-3.611-20.997 3.022l-30.5 40.756-30.5-40.755c-4.964-6.633-14.365-7.987-20.997-3.022-6.633 4.963-7.985 14.364-3.022 20.997l23.841 31.857h-42.798c-49.009 0-88.88 39.872-88.88 88.88v146.953c0 49.007 39.871 88.878 88.879 88.878zm-58.879-235.832c0-32.466 26.413-58.88 58.88-58.88h146.953c32.467 0 58.88 26.414 58.88 58.88v146.953c0 32.466-26.413 58.88-58.88 58.88h-146.954c-32.467 0-58.88-26.414-58.88-58.88v-146.953z"/><path d="m160.442 305.991 85.936-24.435v24.59c0 4.583 2.096 8.916 5.689 11.761 2.676 2.119 5.964 3.239 9.312 3.239 1.147 0 2.302-.132 3.44-.4l94.282-22.225c8.063-1.9 13.06-9.978 11.158-18.041-1.9-8.064-9.98-13.06-18.041-11.158l-75.84 17.878v-25.503c0-4.704-2.206-9.135-5.959-11.969s-8.618-3.746-13.144-2.459l-105.038 29.866c-7.969 2.266-12.591 10.562-10.325 18.531s10.564 12.588 18.53 10.325z"/></svg>